<mxfile host="app.diagrams.net" modified="2023-11-07T13:26:55.868Z" agent="Mozilla/5.0 (Windows NT 10.0; Win64; x64) AppleWebKit/537.36 (KHTML, like Gecko) Chrome/119.0.0.0 Safari/537.36" etag="BhpiidfUg23qD_rjxR24" version="22.0.8" type="github">
  <diagram name="Page-1" id="AmhvDtN12hfX36d8CAgO">
    <mxGraphModel dx="875" dy="452" grid="1" gridSize="10" guides="1" tooltips="1" connect="1" arrows="1" fold="1" page="1" pageScale="1" pageWidth="827" pageHeight="1169" math="0" shadow="0">
      <root>
        <mxCell id="0" />
        <mxCell id="1" parent="0" />
        <mxCell id="Vd_EWAeYuF9hCsvW2SVY-1" value="&lt;font style=&quot;font-size: 24px;&quot;&gt;1&lt;/font&gt;" style="ellipse;whiteSpace=wrap;html=1;aspect=fixed;" vertex="1" parent="1">
          <mxGeometry x="559" y="130" width="50" height="50" as="geometry" />
        </mxCell>
        <mxCell id="Vd_EWAeYuF9hCsvW2SVY-2" value="&lt;font style=&quot;font-size: 15px;&quot;&gt;bp1 CO CF / AO AF&lt;/font&gt;" style="text;html=1;align=center;verticalAlign=middle;resizable=0;points=[];autosize=1;strokeColor=none;fillColor=none;" vertex="1" parent="1">
          <mxGeometry x="334" y="58" width="160" height="30" as="geometry" />
        </mxCell>
        <mxCell id="Vd_EWAeYuF9hCsvW2SVY-4" value="&lt;span style=&quot;color: rgb(0, 0, 0); font-family: Helvetica; font-size: 15px; font-style: normal; font-variant-ligatures: normal; font-variant-caps: normal; font-weight: 400; letter-spacing: normal; orphans: 2; text-align: center; text-indent: 0px; text-transform: none; widows: 2; word-spacing: 0px; -webkit-text-stroke-width: 0px; background-color: rgb(251, 251, 251); text-decoration-thickness: initial; text-decoration-style: initial; text-decoration-color: initial; float: none; display: inline !important;&quot;&gt;001/00&lt;/span&gt;" style="text;whiteSpace=wrap;html=1;" vertex="1" parent="1">
          <mxGeometry x="559" y="100" width="50" height="30" as="geometry" />
        </mxCell>
        <mxCell id="Vd_EWAeYuF9hCsvW2SVY-27" style="edgeStyle=orthogonalEdgeStyle;rounded=0;orthogonalLoop=1;jettySize=auto;html=1;exitX=0;exitY=0.5;exitDx=0;exitDy=0;" edge="1" parent="1" source="Vd_EWAeYuF9hCsvW2SVY-5" target="Vd_EWAeYuF9hCsvW2SVY-7">
          <mxGeometry relative="1" as="geometry" />
        </mxCell>
        <mxCell id="Vd_EWAeYuF9hCsvW2SVY-5" value="&lt;font style=&quot;font-size: 24px;&quot;&gt;2&lt;/font&gt;" style="ellipse;whiteSpace=wrap;html=1;aspect=fixed;" vertex="1" parent="1">
          <mxGeometry x="459" y="130" width="50" height="50" as="geometry" />
        </mxCell>
        <mxCell id="Vd_EWAeYuF9hCsvW2SVY-6" value="&lt;span style=&quot;color: rgb(0, 0, 0); font-family: Helvetica; font-size: 15px; font-style: normal; font-variant-ligatures: normal; font-variant-caps: normal; font-weight: 400; letter-spacing: normal; orphans: 2; text-align: center; text-indent: 0px; text-transform: none; widows: 2; word-spacing: 0px; -webkit-text-stroke-width: 0px; background-color: rgb(251, 251, 251); text-decoration-thickness: initial; text-decoration-style: initial; text-decoration-color: initial; float: none; display: inline !important;&quot;&gt;101/00&lt;/span&gt;" style="text;whiteSpace=wrap;html=1;" vertex="1" parent="1">
          <mxGeometry x="459" y="100" width="50" height="30" as="geometry" />
        </mxCell>
        <mxCell id="Vd_EWAeYuF9hCsvW2SVY-41" style="edgeStyle=orthogonalEdgeStyle;rounded=0;orthogonalLoop=1;jettySize=auto;html=1;exitX=0;exitY=0.5;exitDx=0;exitDy=0;entryX=1;entryY=0.5;entryDx=0;entryDy=0;" edge="1" parent="1" source="Vd_EWAeYuF9hCsvW2SVY-7" target="Vd_EWAeYuF9hCsvW2SVY-9">
          <mxGeometry relative="1" as="geometry" />
        </mxCell>
        <mxCell id="Vd_EWAeYuF9hCsvW2SVY-7" value="&lt;font style=&quot;font-size: 24px;&quot;&gt;3&lt;/font&gt;" style="ellipse;whiteSpace=wrap;html=1;aspect=fixed;" vertex="1" parent="1">
          <mxGeometry x="369" y="130" width="50" height="50" as="geometry" />
        </mxCell>
        <mxCell id="Vd_EWAeYuF9hCsvW2SVY-8" value="&lt;span style=&quot;color: rgb(0, 0, 0); font-family: Helvetica; font-size: 15px; font-style: normal; font-variant-ligatures: normal; font-variant-caps: normal; font-weight: 400; letter-spacing: normal; orphans: 2; text-align: center; text-indent: 0px; text-transform: none; widows: 2; word-spacing: 0px; -webkit-text-stroke-width: 0px; background-color: rgb(251, 251, 251); text-decoration-thickness: initial; text-decoration-style: initial; text-decoration-color: initial; float: none; display: inline !important;&quot;&gt;101/10&lt;/span&gt;" style="text;whiteSpace=wrap;html=1;" vertex="1" parent="1">
          <mxGeometry x="369" y="100" width="50" height="30" as="geometry" />
        </mxCell>
        <mxCell id="Vd_EWAeYuF9hCsvW2SVY-48" style="edgeStyle=orthogonalEdgeStyle;rounded=0;orthogonalLoop=1;jettySize=auto;html=1;exitX=0.5;exitY=1;exitDx=0;exitDy=0;" edge="1" parent="1" source="Vd_EWAeYuF9hCsvW2SVY-9" target="Vd_EWAeYuF9hCsvW2SVY-13">
          <mxGeometry relative="1" as="geometry" />
        </mxCell>
        <mxCell id="Vd_EWAeYuF9hCsvW2SVY-9" value="&lt;font style=&quot;font-size: 24px;&quot;&gt;4&lt;/font&gt;" style="ellipse;whiteSpace=wrap;html=1;aspect=fixed;" vertex="1" parent="1">
          <mxGeometry x="219" y="130" width="50" height="50" as="geometry" />
        </mxCell>
        <mxCell id="Vd_EWAeYuF9hCsvW2SVY-10" value="&lt;span style=&quot;color: rgb(0, 0, 0); font-family: Helvetica; font-size: 15px; font-style: normal; font-variant-ligatures: normal; font-variant-caps: normal; font-weight: 400; letter-spacing: normal; orphans: 2; text-align: center; text-indent: 0px; text-transform: none; widows: 2; word-spacing: 0px; -webkit-text-stroke-width: 0px; background-color: rgb(251, 251, 251); text-decoration-thickness: initial; text-decoration-style: initial; text-decoration-color: initial; float: none; display: inline !important;&quot;&gt;100/10&lt;/span&gt;" style="text;whiteSpace=wrap;html=1;" vertex="1" parent="1">
          <mxGeometry x="219" y="100" width="50" height="30" as="geometry" />
        </mxCell>
        <mxCell id="Vd_EWAeYuF9hCsvW2SVY-35" style="edgeStyle=orthogonalEdgeStyle;rounded=0;orthogonalLoop=1;jettySize=auto;html=1;exitX=0.5;exitY=1;exitDx=0;exitDy=0;" edge="1" parent="1" source="Vd_EWAeYuF9hCsvW2SVY-11" target="Vd_EWAeYuF9hCsvW2SVY-20">
          <mxGeometry relative="1" as="geometry" />
        </mxCell>
        <mxCell id="Vd_EWAeYuF9hCsvW2SVY-11" value="&lt;font style=&quot;font-size: 24px;&quot;&gt;400&lt;/font&gt;" style="ellipse;whiteSpace=wrap;html=1;aspect=fixed;" vertex="1" parent="1">
          <mxGeometry x="339" y="250" width="50" height="50" as="geometry" />
        </mxCell>
        <mxCell id="Vd_EWAeYuF9hCsvW2SVY-31" style="edgeStyle=orthogonalEdgeStyle;rounded=0;orthogonalLoop=1;jettySize=auto;html=1;exitX=0.5;exitY=1;exitDx=0;exitDy=0;entryX=0.5;entryY=0;entryDx=0;entryDy=0;" edge="1" parent="1" source="Vd_EWAeYuF9hCsvW2SVY-13" target="Vd_EWAeYuF9hCsvW2SVY-18">
          <mxGeometry relative="1" as="geometry" />
        </mxCell>
        <mxCell id="Vd_EWAeYuF9hCsvW2SVY-13" value="&lt;font style=&quot;font-size: 24px;&quot;&gt;410&lt;/font&gt;" style="ellipse;whiteSpace=wrap;html=1;aspect=fixed;" vertex="1" parent="1">
          <mxGeometry x="219" y="350" width="50" height="50" as="geometry" />
        </mxCell>
        <mxCell id="Vd_EWAeYuF9hCsvW2SVY-14" value="&lt;span style=&quot;color: rgb(0, 0, 0); font-family: Helvetica; font-size: 15px; font-style: normal; font-variant-ligatures: normal; font-variant-caps: normal; font-weight: 400; letter-spacing: normal; orphans: 2; text-align: center; text-indent: 0px; text-transform: none; widows: 2; word-spacing: 0px; -webkit-text-stroke-width: 0px; background-color: rgb(251, 251, 251); text-decoration-thickness: initial; text-decoration-style: initial; text-decoration-color: initial; float: none; display: inline !important;&quot;&gt;110/10&lt;/span&gt;" style="text;whiteSpace=wrap;html=1;" vertex="1" parent="1">
          <mxGeometry x="219" y="320" width="50" height="30" as="geometry" />
        </mxCell>
        <mxCell id="Vd_EWAeYuF9hCsvW2SVY-33" style="edgeStyle=orthogonalEdgeStyle;rounded=0;orthogonalLoop=1;jettySize=auto;html=1;exitX=1;exitY=0.5;exitDx=0;exitDy=0;entryX=0;entryY=0.5;entryDx=0;entryDy=0;" edge="1" parent="1" source="Vd_EWAeYuF9hCsvW2SVY-18" target="Vd_EWAeYuF9hCsvW2SVY-22">
          <mxGeometry relative="1" as="geometry" />
        </mxCell>
        <mxCell id="Vd_EWAeYuF9hCsvW2SVY-18" value="&lt;font style=&quot;font-size: 24px;&quot;&gt;51&lt;/font&gt;" style="ellipse;whiteSpace=wrap;html=1;aspect=fixed;" vertex="1" parent="1">
          <mxGeometry x="219" y="454" width="50" height="50" as="geometry" />
        </mxCell>
        <mxCell id="Vd_EWAeYuF9hCsvW2SVY-19" value="&lt;span style=&quot;color: rgb(0, 0, 0); font-family: Helvetica; font-size: 15px; font-style: normal; font-variant-ligatures: normal; font-variant-caps: normal; font-weight: 400; letter-spacing: normal; orphans: 2; text-align: center; text-indent: 0px; text-transform: none; widows: 2; word-spacing: 0px; -webkit-text-stroke-width: 0px; background-color: rgb(251, 251, 251); text-decoration-thickness: initial; text-decoration-style: initial; text-decoration-color: initial; float: none; display: inline !important;&quot;&gt;110/00&lt;/span&gt;" style="text;whiteSpace=wrap;html=1;" vertex="1" parent="1">
          <mxGeometry x="219" y="424" width="50" height="30" as="geometry" />
        </mxCell>
        <mxCell id="Vd_EWAeYuF9hCsvW2SVY-36" style="edgeStyle=orthogonalEdgeStyle;rounded=0;orthogonalLoop=1;jettySize=auto;html=1;exitX=0.5;exitY=1;exitDx=0;exitDy=0;entryX=0.5;entryY=0;entryDx=0;entryDy=0;" edge="1" parent="1" source="Vd_EWAeYuF9hCsvW2SVY-20" target="Vd_EWAeYuF9hCsvW2SVY-22">
          <mxGeometry relative="1" as="geometry" />
        </mxCell>
        <mxCell id="Vd_EWAeYuF9hCsvW2SVY-20" value="&lt;font style=&quot;font-size: 24px;&quot;&gt;401&lt;/font&gt;" style="ellipse;whiteSpace=wrap;html=1;aspect=fixed;" vertex="1" parent="1">
          <mxGeometry x="339" y="350" width="50" height="50" as="geometry" />
        </mxCell>
        <mxCell id="Vd_EWAeYuF9hCsvW2SVY-21" value="&lt;span style=&quot;color: rgb(0, 0, 0); font-family: Helvetica; font-size: 15px; font-style: normal; font-variant-ligatures: normal; font-variant-caps: normal; font-weight: 400; letter-spacing: normal; orphans: 2; text-align: center; text-indent: 0px; text-transform: none; widows: 2; word-spacing: 0px; -webkit-text-stroke-width: 0px; background-color: rgb(251, 251, 251); text-decoration-thickness: initial; text-decoration-style: initial; text-decoration-color: initial; float: none; display: inline !important;&quot;&gt;010/10&lt;/span&gt;" style="text;whiteSpace=wrap;html=1;" vertex="1" parent="1">
          <mxGeometry x="339" y="320" width="50" height="30" as="geometry" />
        </mxCell>
        <mxCell id="Vd_EWAeYuF9hCsvW2SVY-53" style="edgeStyle=orthogonalEdgeStyle;rounded=0;orthogonalLoop=1;jettySize=auto;html=1;exitX=1;exitY=0.5;exitDx=0;exitDy=0;entryX=0;entryY=0.5;entryDx=0;entryDy=0;" edge="1" parent="1" source="Vd_EWAeYuF9hCsvW2SVY-22" target="Vd_EWAeYuF9hCsvW2SVY-49">
          <mxGeometry relative="1" as="geometry" />
        </mxCell>
        <mxCell id="Vd_EWAeYuF9hCsvW2SVY-22" value="&lt;span style=&quot;font-size: 24px;&quot;&gt;50&lt;/span&gt;" style="ellipse;whiteSpace=wrap;html=1;aspect=fixed;" vertex="1" parent="1">
          <mxGeometry x="339" y="454" width="50" height="50" as="geometry" />
        </mxCell>
        <mxCell id="Vd_EWAeYuF9hCsvW2SVY-23" value="&lt;span style=&quot;color: rgb(0, 0, 0); font-family: Helvetica; font-size: 15px; font-style: normal; font-variant-ligatures: normal; font-variant-caps: normal; font-weight: 400; letter-spacing: normal; orphans: 2; text-align: center; text-indent: 0px; text-transform: none; widows: 2; word-spacing: 0px; -webkit-text-stroke-width: 0px; background-color: rgb(251, 251, 251); text-decoration-thickness: initial; text-decoration-style: initial; text-decoration-color: initial; float: none; display: inline !important;&quot;&gt;010/00&lt;/span&gt;" style="text;whiteSpace=wrap;html=1;" vertex="1" parent="1">
          <mxGeometry x="339" y="424" width="50" height="30" as="geometry" />
        </mxCell>
        <mxCell id="Vd_EWAeYuF9hCsvW2SVY-26" value="" style="endArrow=classic;html=1;rounded=0;exitX=0;exitY=0.5;exitDx=0;exitDy=0;entryX=1;entryY=0.5;entryDx=0;entryDy=0;" edge="1" parent="1" source="Vd_EWAeYuF9hCsvW2SVY-1" target="Vd_EWAeYuF9hCsvW2SVY-5">
          <mxGeometry width="50" height="50" relative="1" as="geometry">
            <mxPoint x="509" y="330" as="sourcePoint" />
            <mxPoint x="559" y="280" as="targetPoint" />
          </mxGeometry>
        </mxCell>
        <mxCell id="Vd_EWAeYuF9hCsvW2SVY-12" value="&lt;span style=&quot;color: rgb(0, 0, 0); font-family: Helvetica; font-size: 15px; font-style: normal; font-variant-ligatures: normal; font-variant-caps: normal; font-weight: 400; letter-spacing: normal; orphans: 2; text-align: center; text-indent: 0px; text-transform: none; widows: 2; word-spacing: 0px; -webkit-text-stroke-width: 0px; background-color: rgb(251, 251, 251); text-decoration-thickness: initial; text-decoration-style: initial; text-decoration-color: initial; float: none; display: inline !important;&quot;&gt;000/10&lt;/span&gt;" style="text;whiteSpace=wrap;html=1;" vertex="1" parent="1">
          <mxGeometry x="339" y="220" width="50" height="30" as="geometry" />
        </mxCell>
        <mxCell id="Vd_EWAeYuF9hCsvW2SVY-46" value="" style="endArrow=classic;startArrow=classic;html=1;rounded=0;exitX=1;exitY=1;exitDx=0;exitDy=0;entryX=0;entryY=0;entryDx=0;entryDy=0;" edge="1" parent="1" source="Vd_EWAeYuF9hCsvW2SVY-9" target="Vd_EWAeYuF9hCsvW2SVY-11">
          <mxGeometry width="50" height="50" relative="1" as="geometry">
            <mxPoint x="309" y="330" as="sourcePoint" />
            <mxPoint x="359" y="280" as="targetPoint" />
          </mxGeometry>
        </mxCell>
        <mxCell id="Vd_EWAeYuF9hCsvW2SVY-54" style="edgeStyle=orthogonalEdgeStyle;rounded=0;orthogonalLoop=1;jettySize=auto;html=1;exitX=1;exitY=0.5;exitDx=0;exitDy=0;entryX=0;entryY=0.5;entryDx=0;entryDy=0;" edge="1" parent="1" source="Vd_EWAeYuF9hCsvW2SVY-49" target="Vd_EWAeYuF9hCsvW2SVY-51">
          <mxGeometry relative="1" as="geometry" />
        </mxCell>
        <mxCell id="Vd_EWAeYuF9hCsvW2SVY-49" value="&lt;span style=&quot;font-size: 24px;&quot;&gt;6&lt;/span&gt;" style="ellipse;whiteSpace=wrap;html=1;aspect=fixed;" vertex="1" parent="1">
          <mxGeometry x="449" y="454" width="50" height="50" as="geometry" />
        </mxCell>
        <mxCell id="Vd_EWAeYuF9hCsvW2SVY-50" value="&lt;span style=&quot;color: rgb(0, 0, 0); font-family: Helvetica; font-size: 15px; font-style: normal; font-variant-ligatures: normal; font-variant-caps: normal; font-weight: 400; letter-spacing: normal; orphans: 2; text-align: center; text-indent: 0px; text-transform: none; widows: 2; word-spacing: 0px; -webkit-text-stroke-width: 0px; background-color: rgb(251, 251, 251); text-decoration-thickness: initial; text-decoration-style: initial; text-decoration-color: initial; float: none; display: inline !important;&quot;&gt;010/01&lt;br&gt;&lt;/span&gt;" style="text;whiteSpace=wrap;html=1;" vertex="1" parent="1">
          <mxGeometry x="449" y="424" width="50" height="26" as="geometry" />
        </mxCell>
        <mxCell id="Vd_EWAeYuF9hCsvW2SVY-58" style="edgeStyle=orthogonalEdgeStyle;rounded=0;orthogonalLoop=1;jettySize=auto;html=1;exitX=0.5;exitY=0;exitDx=0;exitDy=0;entryX=0.5;entryY=1;entryDx=0;entryDy=0;" edge="1" parent="1" source="Vd_EWAeYuF9hCsvW2SVY-51" target="Vd_EWAeYuF9hCsvW2SVY-55">
          <mxGeometry relative="1" as="geometry" />
        </mxCell>
        <mxCell id="Vd_EWAeYuF9hCsvW2SVY-51" value="&lt;span style=&quot;font-size: 24px;&quot;&gt;7&lt;br&gt;&lt;/span&gt;" style="ellipse;whiteSpace=wrap;html=1;aspect=fixed;" vertex="1" parent="1">
          <mxGeometry x="559" y="454" width="50" height="50" as="geometry" />
        </mxCell>
        <mxCell id="Vd_EWAeYuF9hCsvW2SVY-52" value="&lt;span style=&quot;color: rgb(0, 0, 0); font-family: Helvetica; font-size: 15px; font-style: normal; font-variant-ligatures: normal; font-variant-caps: normal; font-weight: 400; letter-spacing: normal; orphans: 2; text-align: center; text-indent: 0px; text-transform: none; widows: 2; word-spacing: 0px; -webkit-text-stroke-width: 0px; background-color: rgb(251, 251, 251); text-decoration-thickness: initial; text-decoration-style: initial; text-decoration-color: initial; float: none; display: inline !important;&quot;&gt;000/01&lt;br&gt;&lt;/span&gt;" style="text;whiteSpace=wrap;html=1;" vertex="1" parent="1">
          <mxGeometry x="559" y="424" width="50" height="26" as="geometry" />
        </mxCell>
        <mxCell id="Vd_EWAeYuF9hCsvW2SVY-59" style="edgeStyle=orthogonalEdgeStyle;rounded=0;orthogonalLoop=1;jettySize=auto;html=1;exitX=0.5;exitY=0;exitDx=0;exitDy=0;entryX=0.5;entryY=1;entryDx=0;entryDy=0;" edge="1" parent="1" source="Vd_EWAeYuF9hCsvW2SVY-55" target="Vd_EWAeYuF9hCsvW2SVY-1">
          <mxGeometry relative="1" as="geometry" />
        </mxCell>
        <mxCell id="Vd_EWAeYuF9hCsvW2SVY-55" value="&lt;span style=&quot;font-size: 24px;&quot;&gt;8&lt;br&gt;&lt;/span&gt;" style="ellipse;whiteSpace=wrap;html=1;aspect=fixed;" vertex="1" parent="1">
          <mxGeometry x="559" y="300" width="50" height="50" as="geometry" />
        </mxCell>
        <mxCell id="Vd_EWAeYuF9hCsvW2SVY-56" value="&lt;span style=&quot;color: rgb(0, 0, 0); font-family: Helvetica; font-size: 15px; font-style: normal; font-variant-ligatures: normal; font-variant-caps: normal; font-weight: 400; letter-spacing: normal; orphans: 2; text-align: center; text-indent: 0px; text-transform: none; widows: 2; word-spacing: 0px; -webkit-text-stroke-width: 0px; background-color: rgb(251, 251, 251); text-decoration-thickness: initial; text-decoration-style: initial; text-decoration-color: initial; float: none; display: inline !important;&quot;&gt;001/01&lt;br&gt;&lt;/span&gt;" style="text;whiteSpace=wrap;html=1;" vertex="1" parent="1">
          <mxGeometry x="559" y="270" width="50" height="26" as="geometry" />
        </mxCell>
        <mxCell id="Vd_EWAeYuF9hCsvW2SVY-67" style="edgeStyle=orthogonalEdgeStyle;rounded=0;orthogonalLoop=1;jettySize=auto;html=1;exitX=0.5;exitY=0;exitDx=0;exitDy=0;entryX=0.5;entryY=1;entryDx=0;entryDy=0;" edge="1" parent="1" source="Vd_EWAeYuF9hCsvW2SVY-60" target="Vd_EWAeYuF9hCsvW2SVY-62">
          <mxGeometry relative="1" as="geometry" />
        </mxCell>
        <mxCell id="Vd_EWAeYuF9hCsvW2SVY-60" value="&lt;span style=&quot;font-size: 24px;&quot;&gt;71&lt;br&gt;&lt;/span&gt;" style="ellipse;whiteSpace=wrap;html=1;aspect=fixed;" vertex="1" parent="1">
          <mxGeometry x="459" y="340" width="50" height="50" as="geometry" />
        </mxCell>
        <mxCell id="Vd_EWAeYuF9hCsvW2SVY-61" value="&lt;span style=&quot;color: rgb(0, 0, 0); font-family: Helvetica; font-size: 15px; font-style: normal; font-variant-ligatures: normal; font-variant-caps: normal; font-weight: 400; letter-spacing: normal; orphans: 2; text-align: center; text-indent: 0px; text-transform: none; widows: 2; word-spacing: 0px; -webkit-text-stroke-width: 0px; background-color: rgb(251, 251, 251); text-decoration-thickness: initial; text-decoration-style: initial; text-decoration-color: initial; float: none; display: inline !important;&quot;&gt;100/01&lt;br&gt;&lt;/span&gt;" style="text;whiteSpace=wrap;html=1;" vertex="1" parent="1">
          <mxGeometry x="459" y="310" width="50" height="26" as="geometry" />
        </mxCell>
        <mxCell id="Vd_EWAeYuF9hCsvW2SVY-62" value="&lt;span style=&quot;font-size: 24px;&quot;&gt;72&lt;br&gt;&lt;/span&gt;" style="ellipse;whiteSpace=wrap;html=1;aspect=fixed;" vertex="1" parent="1">
          <mxGeometry x="459" y="240" width="50" height="50" as="geometry" />
        </mxCell>
        <mxCell id="Vd_EWAeYuF9hCsvW2SVY-63" value="&lt;span style=&quot;color: rgb(0, 0, 0); font-family: Helvetica; font-size: 15px; font-style: normal; font-variant-ligatures: normal; font-variant-caps: normal; font-weight: 400; letter-spacing: normal; orphans: 2; text-align: center; text-indent: 0px; text-transform: none; widows: 2; word-spacing: 0px; -webkit-text-stroke-width: 0px; background-color: rgb(251, 251, 251); text-decoration-thickness: initial; text-decoration-style: initial; text-decoration-color: initial; float: none; display: inline !important;&quot;&gt;100/00&lt;br&gt;&lt;/span&gt;" style="text;whiteSpace=wrap;html=1;" vertex="1" parent="1">
          <mxGeometry x="459" y="210" width="50" height="26" as="geometry" />
        </mxCell>
        <mxCell id="Vd_EWAeYuF9hCsvW2SVY-66" value="" style="endArrow=classic;html=1;rounded=0;exitX=0;exitY=0;exitDx=0;exitDy=0;entryX=1;entryY=1;entryDx=0;entryDy=0;" edge="1" parent="1" source="Vd_EWAeYuF9hCsvW2SVY-51" target="Vd_EWAeYuF9hCsvW2SVY-60">
          <mxGeometry width="50" height="50" relative="1" as="geometry">
            <mxPoint x="459" y="330" as="sourcePoint" />
            <mxPoint x="509" y="280" as="targetPoint" />
          </mxGeometry>
        </mxCell>
        <mxCell id="Vd_EWAeYuF9hCsvW2SVY-69" value="" style="endArrow=classic;html=1;rounded=0;exitX=0;exitY=0;exitDx=0;exitDy=0;entryX=0.972;entryY=0.723;entryDx=0;entryDy=0;entryPerimeter=0;" edge="1" parent="1" source="Vd_EWAeYuF9hCsvW2SVY-62" target="Vd_EWAeYuF9hCsvW2SVY-9">
          <mxGeometry width="50" height="50" relative="1" as="geometry">
            <mxPoint x="459" y="330" as="sourcePoint" />
            <mxPoint x="509" y="280" as="targetPoint" />
          </mxGeometry>
        </mxCell>
      </root>
    </mxGraphModel>
  </diagram>
</mxfile>
